<svg xmlns="http://www.w3.org/2000/svg" xmlns:xlink="http://www.w3.org/1999/xlink" width="2500" zoomAndPan="magnify" viewBox="0 0 360 96.749999" height="676" preserveAspectRatio="xMidYMid meet" version="1.0"><defs><clipPath id="b9ad5812b7"><path d="M 0.464844 0 L 359.535156 0 L 359.535156 96.5 L 0.464844 96.5 Z M 0.464844 0 " clip-rule="nonzero"/></clipPath></defs><g clip-path="url(#b9ad5812b7)"><path fill="#ffffff" d="M 69.621094 41.246094 L 39.449219 41.246094 C 39.261719 41.246094 39.082031 41.285156 38.910156 41.355469 C 38.738281 41.425781 38.585938 41.527344 38.453125 41.660156 C 38.320312 41.792969 38.21875 41.945312 38.144531 42.117188 C 38.074219 42.289062 38.039062 42.472656 38.039062 42.65625 L 38.039062 57.40625 C 38.039062 57.59375 38.074219 57.773438 38.144531 57.945312 C 38.21875 58.121094 38.320312 58.273438 38.453125 58.402344 C 38.585938 58.535156 38.738281 58.640625 38.910156 58.710938 C 39.082031 58.78125 39.261719 58.820312 39.449219 58.820312 L 51.21875 58.820312 L 51.21875 77.140625 C 51.21875 77.140625 48.578125 78.042969 41.269531 78.042969 C 32.648438 78.042969 20.605469 74.894531 20.605469 48.417969 C 20.605469 21.9375 33.144531 18.453125 44.917969 18.453125 C 55.109375 18.453125 59.5 20.25 62.292969 21.113281 C 63.171875 21.378906 63.984375 20.507812 63.984375 19.726562 L 67.351562 5.476562 C 67.351562 5.113281 67.226562 4.675781 66.8125 4.375 C 65.675781 3.566406 58.753906 -0.304688 41.269531 -0.304688 C 21.125 -0.304688 0.464844 8.265625 0.464844 49.449219 C 0.464844 90.640625 24.121094 96.777344 44.054688 96.777344 C 60.5625 96.777344 70.574219 89.726562 70.574219 89.726562 C 70.988281 89.496094 71.03125 88.921875 71.03125 88.65625 L 71.03125 42.65625 C 71.03125 41.878906 70.402344 41.246094 69.621094 41.246094 M 225.125 4.628906 C 225.128906 4.445312 225.09375 4.261719 225.023438 4.089844 C 224.953125 3.917969 224.851562 3.765625 224.71875 3.632812 C 224.589844 3.496094 224.4375 3.394531 224.265625 3.324219 C 224.09375 3.25 223.914062 3.214844 223.726562 3.214844 L 206.734375 3.214844 C 206.546875 3.214844 206.367188 3.25 206.195312 3.324219 C 206.023438 3.394531 205.871094 3.496094 205.738281 3.628906 C 205.605469 3.761719 205.503906 3.917969 205.433594 4.089844 C 205.363281 4.261719 205.328125 4.441406 205.328125 4.628906 L 205.332031 37.457031 L 178.851562 37.457031 L 178.851562 4.628906 C 178.851562 4.445312 178.816406 4.261719 178.746094 4.089844 C 178.675781 3.917969 178.574219 3.765625 178.445312 3.628906 C 178.3125 3.496094 178.160156 3.394531 177.988281 3.324219 C 177.816406 3.25 177.636719 3.214844 177.449219 3.214844 L 160.460938 3.214844 C 160.273438 3.214844 160.09375 3.25 159.921875 3.324219 C 159.746094 3.394531 159.59375 3.5 159.464844 3.632812 C 159.332031 3.765625 159.230469 3.917969 159.160156 4.089844 C 159.089844 4.261719 159.054688 4.445312 159.054688 4.628906 L 159.054688 93.511719 C 159.054688 94.296875 159.6875 94.933594 160.460938 94.933594 L 177.449219 94.933594 C 178.226562 94.933594 178.851562 94.292969 178.851562 93.511719 L 178.851562 55.492188 L 205.332031 55.492188 L 205.285156 93.511719 C 205.285156 94.296875 205.917969 94.933594 206.695312 94.933594 L 223.722656 94.933594 C 224.503906 94.933594 225.125 94.292969 225.125 93.511719 L 225.125 4.628906 M 101.683594 16.292969 C 101.683594 10.179688 96.777344 5.234375 90.726562 5.234375 C 84.683594 5.234375 79.773438 10.179688 79.773438 16.292969 C 79.773438 22.402344 84.683594 27.359375 90.726562 27.359375 C 96.777344 27.359375 101.683594 22.402344 101.683594 16.292969 M 100.46875 74.761719 L 100.46875 33.734375 C 100.46875 33.546875 100.433594 33.367188 100.363281 33.195312 C 100.289062 33.023438 100.191406 32.871094 100.058594 32.738281 C 99.925781 32.605469 99.773438 32.5 99.601562 32.429688 C 99.429688 32.355469 99.25 32.320312 99.0625 32.320312 L 82.125 32.320312 C 81.347656 32.320312 80.652344 33.121094 80.652344 33.898438 L 80.652344 92.679688 C 80.652344 94.40625 81.730469 94.921875 83.125 94.921875 L 98.382812 94.921875 C 100.058594 94.921875 100.46875 94.097656 100.46875 92.652344 L 100.46875 74.761719 M 289.691406 32.453125 L 272.832031 32.453125 C 272.058594 32.453125 271.429688 33.089844 271.429688 33.875 L 271.429688 77.453125 C 271.429688 77.453125 267.148438 80.589844 261.070312 80.589844 C 254.988281 80.589844 253.378906 77.832031 253.378906 71.878906 L 253.378906 33.875 C 253.378906 33.089844 252.75 32.453125 251.976562 32.453125 L 234.863281 32.453125 C 234.09375 32.453125 233.457031 33.089844 233.457031 33.875 L 233.457031 74.757812 C 233.457031 92.433594 243.3125 96.757812 256.867188 96.757812 C 267.988281 96.757812 276.953125 90.617188 276.953125 90.617188 C 276.953125 90.617188 277.382812 93.851562 277.574219 94.234375 C 277.769531 94.617188 278.273438 95.003906 278.816406 95.003906 L 289.703125 94.957031 C 290.472656 94.957031 291.105469 94.320312 291.105469 93.539062 L 291.101562 33.875 C 291.101562 33.089844 290.46875 32.453125 289.691406 32.453125 M 329.121094 80.535156 C 323.273438 80.355469 319.308594 77.703125 319.308594 77.703125 L 319.308594 49.558594 C 319.308594 49.558594 323.222656 47.160156 328.023438 46.730469 C 334.09375 46.1875 339.941406 48.019531 339.941406 62.5 C 339.945312 77.765625 337.304688 80.78125 329.121094 80.535156 Z M 335.773438 30.457031 C 326.195312 30.457031 319.683594 34.726562 319.683594 34.726562 L 319.683594 4.632812 C 319.683594 3.847656 319.054688 3.214844 318.28125 3.214844 L 301.246094 3.214844 C 301.058594 3.214844 300.878906 3.25 300.703125 3.324219 C 300.53125 3.394531 300.378906 3.5 300.25 3.632812 C 300.117188 3.765625 300.015625 3.917969 299.945312 4.089844 C 299.875 4.265625 299.839844 4.445312 299.839844 4.632812 L 299.839844 93.511719 C 299.839844 94.296875 300.46875 94.933594 301.246094 94.933594 L 313.066406 94.933594 C 313.601562 94.933594 314.003906 94.660156 314.300781 94.179688 C 314.59375 93.703125 315.019531 90.082031 315.019531 90.082031 C 315.019531 90.082031 321.984375 96.679688 335.171875 96.679688 C 350.65625 96.679688 359.535156 88.828125 359.535156 61.433594 C 359.535156 34.035156 345.355469 30.457031 335.773438 30.457031 M 149.296875 32.3125 L 136.550781 32.3125 L 136.535156 15.476562 C 136.535156 14.839844 136.203125 14.523438 135.46875 14.523438 L 118.101562 14.523438 C 117.425781 14.523438 117.0625 14.820312 117.0625 15.46875 L 117.0625 32.863281 C 117.0625 32.863281 108.359375 34.964844 107.773438 35.132812 C 107.46875 35.222656 107.226562 35.390625 107.035156 35.640625 C 106.847656 35.890625 106.753906 36.175781 106.753906 36.488281 L 106.753906 47.417969 C 106.753906 48.207031 107.382812 48.839844 108.160156 48.839844 L 117.0625 48.839844 L 117.0625 75.132812 C 117.0625 94.667969 130.765625 96.585938 140.015625 96.585938 C 144.238281 96.585938 149.292969 95.230469 150.128906 94.917969 C 150.632812 94.734375 150.925781 94.210938 150.925781 93.644531 L 150.941406 81.621094 C 150.941406 80.835938 150.277344 80.203125 149.53125 80.203125 C 148.789062 80.203125 146.890625 80.503906 144.933594 80.503906 C 138.675781 80.503906 136.550781 77.59375 136.550781 73.828125 L 136.550781 48.835938 L 149.296875 48.835938 C 150.074219 48.835938 150.703125 48.203125 150.703125 47.417969 L 150.703125 33.726562 C 150.703125 33.539062 150.667969 33.359375 150.597656 33.1875 C 150.527344 33.011719 150.425781 32.859375 150.292969 32.726562 C 150.160156 32.59375 150.007812 32.492188 149.835938 32.421875 C 149.664062 32.347656 149.484375 32.3125 149.296875 32.3125 " fill-opacity="1" fill-rule="nonzero"/></g></svg>