<svg xmlns="http://www.w3.org/2000/svg" xmlns:xlink="http://www.w3.org/1999/xlink" width="2500" zoomAndPan="magnify" viewBox="0 0 383.25 128.249994" height="676" preserveAspectRatio="xMidYMid meet" version="1.0"><defs><clipPath id="1663c123ef"><path d="M 0.742188 0 L 239 0 L 239 127.503906 L 0.742188 127.503906 Z M 0.742188 0 " clip-rule="nonzero"/></clipPath><clipPath id="3b825e0537"><path d="M 56 22 L 381.761719 22 L 381.761719 80 L 56 80 Z M 56 22 " clip-rule="nonzero"/></clipPath></defs><g clip-path="url(#1663c123ef)"><path fill="#ffffff" d="M 33.558594 -0.871094 C 31.003906 0.105469 26.796875 5.355469 24.320312 10.53125 C 20.941406 17.730469 19.4375 24.109375 19.4375 31.460938 C 19.4375 36.785156 19.738281 38.511719 21.464844 42.335938 C 22.59375 44.734375 24.394531 47.734375 25.523438 48.9375 C 28.074219 51.636719 32.804688 53.8125 36.035156 53.886719 C 38.0625 53.886719 38.4375 54.1875 38.4375 55.761719 C 38.4375 56.8125 37.761719 59.289062 37.011719 61.386719 C 33.707031 70.015625 27.023438 74.890625 18.238281 74.890625 C 12.003906 74.890625 7.496094 72.863281 5.84375 69.339844 C 3.816406 65.0625 4.265625 62.4375 7.722656 58.238281 C 10.050781 55.539062 10.953125 53.738281 11.253906 51.261719 C 11.550781 48.261719 11.402344 47.8125 9.824219 47.285156 C 5.542969 45.710938 0.210938 49.6875 -1.441406 55.539062 C -1.890625 57.335938 -2.117188 60.710938 -1.890625 63.113281 C -0.765625 75.414062 8.472656 81.714844 23.792969 80.664062 C 32.207031 80.066406 36.5625 78.414062 41.144531 73.765625 C 45.949219 69.039062 47.976562 63.714844 48.953125 53.960938 C 49.78125 45.710938 49.929688 14.132812 49.253906 5.65625 C 48.726562 -0.046875 48.726562 -0.121094 46.398438 -0.421875 C 41.066406 -1.246094 34.984375 -1.46875 33.558594 -0.871094 Z M 38.214844 9.78125 C 38.664062 10.382812 38.816406 17.730469 38.589844 28.160156 C 38.289062 44.359375 38.140625 45.636719 36.863281 46.011719 C 34.382812 46.835938 31.378906 44.734375 29.425781 40.761719 C 27.699219 37.386719 27.550781 36.109375 27.550781 28.007812 C 27.550781 18.257812 28.375 14.730469 31.453125 11.132812 C 33.40625 8.730469 36.863281 8.054688 38.214844 9.78125 Z M 129.011719 1.15625 C 128.789062 1.753906 128.5625 4.003906 128.5625 6.105469 C 128.5625 8.28125 128.335938 12.257812 128.035156 15.03125 L 127.585938 20.132812 L 124.132812 20.132812 C 120.753906 20.132812 115.269531 21.183594 114.519531 21.859375 C 114.367188 22.082031 114.519531 22.90625 114.96875 23.734375 C 115.71875 25.082031 117.296875 25.683594 125.410156 27.332031 L 127.0625 27.632812 L 126.910156 45.484375 C 126.683594 61.089844 126.835938 63.863281 128.113281 67.914062 C 130.515625 75.863281 135.996094 80.664062 141.554688 79.617188 C 144.335938 79.089844 148.015625 75.113281 150.492188 70.015625 C 151.621094 67.539062 152.597656 66.1875 152.597656 67.015625 C 152.597656 69.488281 156.125 76.164062 158.003906 77.441406 C 158.980469 78.113281 161.609375 78.941406 163.785156 79.390625 C 170.246094 80.589844 174 77.890625 177.832031 69.1875 L 179.03125 66.261719 L 179.707031 68.4375 C 180.535156 71.4375 184.589844 75.414062 187.292969 75.941406 C 190.222656 76.539062 194.128906 74.816406 196.15625 72.039062 L 197.882812 69.714844 L 199.460938 72.863281 C 201.5625 76.914062 203.816406 78.488281 209.222656 79.464844 C 213.203125 80.140625 213.878906 80.140625 215.605469 78.789062 C 216.660156 78.039062 218.460938 75.714844 219.585938 73.691406 L 221.691406 70.015625 L 221.691406 78.941406 L 216.132812 84.414062 C 209.972656 90.417969 205.46875 98.292969 203.289062 106.769531 C 199.609375 121.246094 204.265625 127.621094 218.609375 127.695312 C 224.769531 127.773438 224.84375 127.773438 226.949219 125.296875 C 230.476562 121.097656 231.003906 117.945312 231.453125 98.894531 L 231.828125 81.265625 L 234.234375 81.265625 C 235.585938 81.265625 237.085938 80.816406 237.613281 80.289062 C 238.4375 79.464844 238.289062 79.015625 236.785156 77.816406 C 235.808594 77.066406 234.15625 76.390625 233.105469 76.390625 L 231.226562 76.390625 L 231.605469 64.164062 C 231.90625 54.785156 232.28125 51.410156 233.257812 49.535156 L 234.53125 47.0625 L 232.054688 46.085938 L 229.578125 45.035156 L 229.578125 38.285156 C 229.578125 31.835938 229.425781 31.382812 227.472656 29.285156 C 226.347656 28.082031 223.945312 26.734375 222.214844 26.207031 C 220.488281 25.757812 217.484375 24.632812 215.53125 23.734375 C 211.402344 21.859375 209.222656 22.234375 205.617188 25.382812 C 200.511719 29.882812 197.957031 38.734375 196.980469 55.011719 C 196.378906 65.4375 195.253906 69.113281 192.398438 70.015625 C 190.296875 70.6875 188.871094 69.339844 187.894531 65.964844 C 186.917969 62.289062 186.917969 53.8125 188.042969 49.613281 C 188.871094 46.3125 188.796875 46.085938 186.992188 44.585938 C 185.265625 43.160156 185.039062 42.335938 184.738281 36.785156 C 184.289062 28.910156 183.164062 27.332031 176.179688 24.484375 C 162.207031 18.78125 155.222656 25.082031 152.597656 45.9375 C 152.21875 49.160156 151.542969 52.238281 151.167969 52.6875 C 150.792969 53.136719 149.890625 55.835938 149.292969 58.613281 C 147.789062 64.914062 145.6875 69.265625 143.132812 70.839844 C 141.332031 72.039062 141.179688 72.039062 139.753906 70.613281 C 137.5 68.363281 136.824219 61.3125 137.273438 45.636719 C 137.800781 25.984375 137.5 27.109375 142.53125 26.433594 C 144.859375 26.207031 148.914062 25.910156 151.542969 25.910156 C 156.726562 25.832031 157.476562 25.15625 154.847656 22.757812 C 153.648438 21.707031 151.621094 21.257812 145.988281 20.957031 L 138.703125 20.507812 L 138.851562 15.257812 C 138.925781 12.332031 139.226562 8.355469 139.453125 6.40625 C 139.902344 2.878906 139.828125 2.804688 137.425781 1.832031 C 133.21875 0.179688 129.464844 -0.195312 129.011719 1.15625 Z M 219.210938 32.433594 C 221.164062 34.160156 221.316406 34.609375 221.238281 39.785156 C 221.089844 49.910156 219.136719 61.3125 216.660156 66.261719 C 214.929688 69.714844 211.851562 72.640625 209.898438 72.640625 C 208.921875 72.640625 207.644531 71.8125 206.894531 70.613281 C 204.867188 67.613281 204.941406 47.8125 206.96875 41.886719 C 208.921875 36.035156 211.027344 32.882812 213.730469 31.683594 C 216.808594 30.332031 216.808594 30.332031 219.210938 32.433594 Z M 175.726562 34.007812 C 177.753906 36.632812 178.507812 42.109375 177.078125 44.285156 C 176.480469 45.261719 175.652344 49.613281 175.203125 54.035156 C 174.074219 64.089844 172.574219 69.339844 169.871094 72.039062 C 166.714844 75.113281 164.085938 74.890625 162.585938 71.289062 C 159.65625 64.464844 160.855469 44.734375 164.6875 37.308594 C 167.390625 31.984375 172.875 30.332031 175.726562 34.007812 Z M 220.9375 109.621094 C 219.585938 118.320312 216.359375 122.820312 212.226562 121.847656 C 208.320312 120.871094 207.121094 113.820312 209.296875 105.269531 C 210.949219 99.042969 214.929688 90.867188 218.386719 86.890625 L 221.316406 83.589844 L 221.539062 94.015625 C 221.617188 99.792969 221.390625 106.84375 220.9375 109.621094 Z M 220.9375 109.621094 " fill-opacity="1" fill-rule="nonzero"/></g><g clip-path="url(#3b825e0537)"><path fill="#ffffff" d="M 277.640625 25.683594 C 273.8125 29.660156 271.558594 35.660156 270.433594 45.261719 C 269.378906 54.261719 266.375 66.113281 264.273438 69.9375 C 262.996094 72.265625 262.171875 73.015625 260.742188 73.015625 C 257.738281 73.015625 256.761719 68.890625 257.214844 57.636719 C 257.515625 50.8125 258.039062 46.761719 259.316406 42.710938 L 261.042969 37.160156 L 259.390625 35.808594 C 258.339844 34.984375 255.789062 34.308594 252.632812 34.007812 C 249.855469 33.785156 247.074219 33.484375 246.472656 33.410156 C 245.722656 33.257812 245.347656 32.285156 245.347656 30.257812 C 245.273438 25.984375 244.523438 25.15625 241.441406 25.609375 C 236.859375 26.359375 236.859375 26.507812 237.238281 39.109375 C 237.535156 46.460938 237.3125 52.535156 236.710938 56.136719 C 235.359375 64.089844 235.433594 64.6875 236.9375 64.988281 C 238.964844 65.4375 240.917969 60.039062 242.492188 49.386719 L 243.921875 40.011719 L 248.351562 40.011719 L 248.050781 49.761719 C 247.601562 68.890625 251.582031 78.640625 259.84375 78.640625 C 263.296875 78.640625 266.300781 76.316406 268.480469 71.890625 L 270.355469 68.214844 L 271.558594 71.4375 C 272.234375 73.164062 273.738281 75.488281 274.863281 76.539062 C 277.339844 78.867188 284.328125 80.589844 287.179688 79.464844 C 289.660156 78.566406 292.886719 74.589844 294.914062 70.164062 L 296.492188 66.488281 L 297.917969 69.640625 C 301.523438 77.664062 309.785156 78.265625 314.667969 70.914062 L 316.695312 67.839844 L 317.144531 71.738281 C 317.820312 76.691406 318.648438 77.664062 322.777344 78.339844 C 329.3125 79.316406 329.3125 79.242188 330.816406 67.988281 C 332.089844 57.863281 334.042969 49.386719 335.171875 49.386719 C 335.472656 49.386719 335.847656 54.410156 335.996094 60.5625 C 336.222656 70.238281 336.449219 71.964844 337.648438 73.316406 C 340.578125 76.539062 347.863281 76.015625 347.863281 72.5625 C 347.863281 69.9375 350.867188 59.0625 353.347656 52.761719 L 355.75 46.761719 L 356.125 57.261719 C 356.425781 66.5625 356.726562 68.214844 358.378906 71.4375 C 359.429688 73.539062 361.15625 75.863281 362.28125 76.691406 C 365.0625 78.714844 370.394531 78.714844 373.097656 76.691406 C 378.878906 72.414062 384.890625 53.886719 380.53125 53.886719 C 379.179688 53.886719 378.28125 55.6875 377.527344 59.511719 C 375.800781 69.113281 370.019531 74.589844 367.390625 69.039062 C 365.8125 65.8125 365.585938 52.910156 367.015625 46.761719 C 369.269531 37.007812 369.34375 37.761719 366.339844 35.507812 C 364.460938 34.085938 362.359375 33.257812 359.953125 33.035156 L 356.425781 32.734375 L 354.472656 37.085938 C 353.347656 39.558594 350.867188 46.085938 348.839844 51.636719 L 345.234375 61.761719 L 345.007812 50.363281 L 344.785156 38.886719 L 342.605469 37.761719 C 336.597656 34.683594 333.445312 37.460938 329.914062 49.085938 C 328.5625 53.585938 327.359375 57.5625 327.210938 58.011719 C 327.058594 58.386719 326.910156 52.3125 326.910156 44.359375 C 326.835938 35.433594 326.535156 29.808594 326.082031 29.507812 C 325.632812 29.207031 323.453125 28.832031 321.277344 28.609375 L 317.222656 28.160156 L 316.921875 42.335938 C 316.621094 54.261719 316.320312 57.261719 314.96875 61.464844 C 312.039062 70.238281 308.285156 72.941406 306.105469 67.765625 C 304.828125 64.6875 304.679688 53.363281 305.878906 49.011719 C 306.632812 46.3125 306.558594 45.9375 304.828125 44.511719 C 303.253906 43.234375 302.953125 42.109375 302.5 37.085938 C 301.898438 30.410156 300.773438 27.558594 298.144531 26.433594 C 290.257812 22.757812 288.90625 22.382812 285.003906 22.382812 C 280.945312 22.382812 280.570312 22.53125 277.640625 25.683594 Z M 292.289062 32.882812 C 294.765625 34.234375 296.417969 42.710938 294.539062 44.585938 C 294.164062 44.960938 293.414062 48.859375 293.039062 53.136719 C 291.988281 63.339844 290.335938 69.113281 287.707031 71.964844 C 284.925781 74.890625 281.847656 74.738281 280.347656 71.589844 C 277.792969 66.1875 277.941406 50.960938 280.644531 41.585938 C 282.898438 34.007812 287.628906 30.410156 292.289062 32.882812 Z M 58.417969 28.234375 C 57.816406 29.285156 56.238281 64.839844 56.613281 69.039062 C 57.140625 73.988281 58.792969 75.640625 63.148438 75.640625 C 65.027344 75.640625 66.976562 75.339844 67.429688 75.039062 C 67.953125 74.738281 68.855469 71.664062 69.53125 68.140625 C 70.957031 61.164062 73.210938 53.8125 74.863281 50.886719 C 75.839844 49.160156 75.914062 49.835938 75.992188 58.011719 C 75.992188 67.988281 77.042969 71.4375 80.496094 73.238281 C 82.976562 74.515625 87.707031 73.914062 90.410156 71.890625 C 92.664062 70.238281 92.664062 70.238281 93.714844 71.738281 C 96.117188 75.191406 106.484375 77.214844 113.765625 75.640625 C 119.25 74.515625 122.554688 71.890625 122.554688 68.589844 C 122.554688 65.363281 121.429688 63.9375 113.617188 57.636719 C 105.804688 51.335938 104.53125 49.6875 104.53125 46.011719 C 104.53125 40.609375 111.214844 37.386719 115.121094 40.835938 C 116.921875 42.484375 118.5 42.109375 120.675781 39.558594 C 122.253906 37.683594 122.554688 36.558594 122.40625 34.085938 C 122.179688 31.535156 121.804688 30.859375 119.925781 29.957031 C 115.71875 27.933594 101.976562 31.609375 97.09375 36.109375 C 93.1875 39.710938 92.289062 45.261719 94.765625 50.0625 C 95.894531 52.386719 96.042969 53.0625 95.21875 53.363281 C 94.691406 53.585938 94.015625 55.238281 93.714844 56.960938 C 92.511719 64.539062 88.53125 69.714844 85.828125 67.089844 C 84.851562 66.039062 84.628906 63.789062 84.476562 53.585938 C 84.402344 44.210938 84.101562 40.761719 83.199219 39.035156 C 81.925781 36.558594 78.996094 35.433594 76.742188 36.632812 C 74.863281 37.609375 71.859375 42.785156 69.15625 49.613281 L 67.054688 55.011719 L 66.976562 42.859375 C 66.976562 31.082031 66.902344 30.632812 65.324219 29.582031 C 62.996094 28.160156 58.941406 27.410156 58.417969 28.234375 Z M 108.660156 63.863281 C 110.464844 65.4375 112.039062 67.3125 112.265625 68.140625 C 113.390625 72.339844 107.234375 73.539062 102.425781 70.015625 C 100.851562 68.890625 98.746094 67.390625 97.546875 66.714844 C 96.269531 65.964844 95.667969 65.136719 95.96875 64.386719 C 96.195312 63.789062 96.792969 61.386719 97.246094 59.0625 L 98.070312 54.785156 L 101.828125 57.9375 C 103.855469 59.585938 106.933594 62.289062 108.660156 63.863281 Z M 108.660156 63.863281 " fill-opacity="1" fill-rule="nonzero"/></g></svg>