<svg xmlns="http://www.w3.org/2000/svg" xmlns:xlink="http://www.w3.org/1999/xlink" width="2500" zoomAndPan="magnify" viewBox="0 0 200.25 48.75" height="676" preserveAspectRatio="xMidYMid meet" version="1.0"><defs><clipPath id="3857189b02"><path d="M 0.136719 0.164062 L 199 0.164062 L 199 48.5 L 0.136719 48.5 Z M 0.136719 0.164062 " clip-rule="nonzero"/></clipPath></defs><g clip-path="url(#3857189b02)"><path fill="#ffffff" d="M 195.210938 42.09375 C 194.925781 42.097656 194.644531 42.136719 194.367188 42.214844 C 194.09375 42.292969 193.832031 42.402344 193.585938 42.546875 C 193.339844 42.695312 193.117188 42.867188 192.917969 43.074219 C 192.71875 43.277344 192.546875 43.503906 192.40625 43.753906 C 192.265625 44.003906 192.15625 44.269531 192.085938 44.546875 C 192.011719 44.824219 191.976562 45.109375 191.980469 45.394531 C 191.980469 45.683594 192.019531 45.964844 192.09375 46.242188 C 192.167969 46.519531 192.277344 46.78125 192.421875 47.03125 C 192.5625 47.277344 192.738281 47.503906 192.941406 47.707031 C 193.140625 47.910156 193.367188 48.082031 193.613281 48.226562 C 193.863281 48.371094 194.125 48.476562 194.398438 48.550781 C 194.675781 48.625 194.957031 48.664062 195.242188 48.664062 C 195.527344 48.664062 195.804688 48.625 196.082031 48.550781 C 196.359375 48.476562 196.621094 48.371094 196.867188 48.226562 C 197.113281 48.082031 197.339844 47.910156 197.542969 47.707031 C 197.742188 47.503906 197.917969 47.277344 198.058594 47.03125 C 198.203125 46.78125 198.3125 46.519531 198.386719 46.242188 C 198.464844 45.964844 198.5 45.683594 198.503906 45.394531 C 198.503906 45.109375 198.46875 44.824219 198.394531 44.546875 C 198.324219 44.269531 198.21875 44.003906 198.074219 43.753906 C 197.933594 43.503906 197.765625 43.277344 197.5625 43.074219 C 197.363281 42.867188 197.140625 42.695312 196.894531 42.546875 C 196.648438 42.402344 196.386719 42.292969 196.113281 42.214844 C 195.835938 42.136719 195.558594 42.097656 195.273438 42.09375 Z M 195.210938 48.289062 C 194.828125 48.292969 194.464844 48.226562 194.109375 48.085938 C 193.757812 47.945312 193.445312 47.742188 193.171875 47.476562 C 192.898438 47.210938 192.6875 46.90625 192.539062 46.554688 C 192.386719 46.203125 192.308594 45.835938 192.300781 45.457031 C 192.296875 45.074219 192.363281 44.707031 192.5 44.351562 C 192.640625 43.996094 192.84375 43.679688 193.105469 43.40625 C 193.371094 43.132812 193.675781 42.917969 194.023438 42.765625 C 194.371094 42.613281 194.734375 42.535156 195.113281 42.527344 C 195.492188 42.523438 195.859375 42.589844 196.210938 42.730469 C 196.566406 42.871094 196.878906 43.074219 197.148438 43.339844 C 197.421875 43.601562 197.632812 43.910156 197.785156 44.261719 C 197.9375 44.613281 198.015625 44.976562 198.023438 45.359375 L 198.023438 45.410156 C 198.03125 45.78125 197.964844 46.144531 197.832031 46.492188 C 197.695312 46.839844 197.5 47.148438 197.246094 47.417969 C 196.988281 47.6875 196.691406 47.898438 196.351562 48.046875 C 196.011719 48.199219 195.65625 48.277344 195.285156 48.285156 L 195.210938 48.285156 M 182.6875 41.199219 L 175.597656 41.199219 L 175.597656 30.023438 C 175.597656 27.359375 175.550781 23.925781 171.914062 23.925781 C 168.222656 23.925781 167.65625 26.832031 167.65625 29.828125 L 167.65625 41.195312 L 160.566406 41.195312 L 160.566406 18.214844 L 167.371094 18.214844 L 167.371094 21.355469 L 167.46875 21.355469 C 167.808594 20.769531 168.21875 20.242188 168.703125 19.765625 C 169.1875 19.292969 169.722656 18.894531 170.316406 18.566406 C 170.90625 18.238281 171.53125 17.996094 172.1875 17.839844 C 172.84375 17.683594 173.507812 17.617188 174.183594 17.644531 C 181.367188 17.644531 182.691406 22.402344 182.691406 28.589844 Z M 152.570312 15.074219 C 152.300781 15.074219 152.03125 15.046875 151.769531 14.996094 C 151.503906 14.941406 151.246094 14.863281 150.996094 14.757812 C 150.746094 14.65625 150.507812 14.527344 150.285156 14.375 C 150.0625 14.226562 149.851562 14.054688 149.660156 13.863281 C 149.472656 13.667969 149.300781 13.460938 149.148438 13.234375 C 149 13.007812 148.875 12.769531 148.769531 12.519531 C 148.667969 12.265625 148.589844 12.007812 148.535156 11.742188 C 148.484375 11.476562 148.457031 11.207031 148.457031 10.933594 C 148.457031 10.660156 148.484375 10.394531 148.535156 10.125 C 148.589844 9.859375 148.664062 9.601562 148.769531 9.347656 C 148.871094 9.097656 149 8.859375 149.148438 8.632812 C 149.300781 8.40625 149.46875 8.199219 149.660156 8.003906 C 149.851562 7.8125 150.058594 7.640625 150.285156 7.492188 C 150.507812 7.339844 150.746094 7.210938 150.996094 7.109375 C 151.246094 7.003906 151.5 6.925781 151.765625 6.871094 C 152.03125 6.820312 152.300781 6.792969 152.570312 6.792969 C 152.839844 6.792969 153.105469 6.820312 153.371094 6.871094 C 153.636719 6.925781 153.894531 7.003906 154.144531 7.105469 C 154.394531 7.210938 154.628906 7.339844 154.855469 7.488281 C 155.078125 7.640625 155.285156 7.8125 155.476562 8.003906 C 155.667969 8.195312 155.839844 8.40625 155.988281 8.632812 C 156.140625 8.859375 156.265625 9.097656 156.371094 9.347656 C 156.472656 9.597656 156.550781 9.859375 156.605469 10.125 C 156.65625 10.390625 156.683594 10.660156 156.683594 10.933594 C 156.683594 11.203125 156.65625 11.472656 156.605469 11.742188 C 156.550781 12.007812 156.472656 12.265625 156.371094 12.515625 C 156.265625 12.769531 156.140625 13.007812 155.992188 13.234375 C 155.839844 13.460938 155.667969 13.667969 155.480469 13.859375 C 155.289062 14.054688 155.082031 14.226562 154.855469 14.375 C 154.632812 14.527344 154.394531 14.65625 154.144531 14.757812 C 153.894531 14.863281 153.636719 14.941406 153.371094 14.996094 C 153.109375 15.046875 152.839844 15.074219 152.570312 15.074219 M 156.113281 41.199219 L 149.019531 41.199219 L 149.019531 18.214844 L 156.113281 18.214844 Z M 186.222656 0.164062 L 145.457031 0.164062 C 144.996094 0.160156 144.546875 0.242188 144.121094 0.417969 C 143.691406 0.589844 143.308594 0.839844 142.980469 1.164062 C 142.648438 1.492188 142.390625 1.867188 142.207031 2.296875 C 142.027344 2.722656 141.933594 3.171875 141.925781 3.636719 L 141.925781 44.847656 C 141.933594 45.3125 142.027344 45.761719 142.207031 46.1875 C 142.390625 46.617188 142.648438 46.996094 142.976562 47.320312 C 143.308594 47.644531 143.6875 47.894531 144.117188 48.070312 C 144.546875 48.242188 144.996094 48.328125 145.457031 48.320312 L 186.222656 48.320312 C 186.683594 48.328125 187.132812 48.246094 187.5625 48.070312 C 187.992188 47.898438 188.375 47.648438 188.707031 47.324219 C 189.039062 46.996094 189.296875 46.621094 189.480469 46.191406 C 189.664062 45.761719 189.757812 45.3125 189.765625 44.847656 L 189.765625 3.632812 C 189.757812 3.167969 189.664062 2.71875 189.480469 2.289062 C 189.296875 1.863281 189.039062 1.484375 188.707031 1.160156 C 188.375 0.832031 187.992188 0.585938 187.5625 0.410156 C 187.132812 0.238281 186.683594 0.15625 186.222656 0.164062 M 122.636719 23.761719 C 119.089844 23.761719 116.964844 26.144531 116.964844 29.617188 C 116.964844 33.089844 119.089844 35.472656 122.636719 35.472656 C 126.179688 35.472656 128.3125 33.09375 128.3125 29.617188 C 128.3125 26.140625 126.183594 23.761719 122.636719 23.761719 M 134.835938 41.183594 L 128.3125 41.183594 L 128.3125 38.136719 L 128.214844 38.136719 C 127.382812 39.261719 126.351562 40.140625 125.109375 40.777344 C 123.871094 41.414062 122.558594 41.738281 121.167969 41.753906 C 114.355469 41.753906 109.871094 36.808594 109.871094 29.808594 C 109.871094 23.382812 113.839844 17.480469 120.367188 17.480469 C 123.300781 17.480469 126.039062 18.289062 127.648438 20.527344 L 127.742188 20.527344 L 127.742188 7.28125 L 134.835938 7.28125 Z M 100.769531 27.023438 C 100.777344 26.734375 100.753906 26.449219 100.703125 26.164062 C 100.652344 25.878906 100.574219 25.601562 100.464844 25.332031 C 100.359375 25.0625 100.226562 24.808594 100.066406 24.566406 C 99.910156 24.324219 99.730469 24.101562 99.523438 23.898438 C 99.320312 23.691406 99.101562 23.511719 98.859375 23.351562 C 98.621094 23.191406 98.367188 23.058594 98.097656 22.953125 C 97.832031 22.84375 97.558594 22.765625 97.273438 22.714844 C 96.992188 22.660156 96.707031 22.640625 96.417969 22.648438 C 96.109375 22.628906 95.804688 22.636719 95.5 22.679688 C 95.195312 22.71875 94.898438 22.789062 94.609375 22.890625 C 94.316406 22.988281 94.039062 23.113281 93.769531 23.269531 C 93.503906 23.421875 93.253906 23.601562 93.023438 23.804688 C 92.792969 24.007812 92.582031 24.230469 92.390625 24.472656 C 92.203125 24.71875 92.039062 24.976562 91.902344 25.253906 C 91.761719 25.53125 91.652344 25.816406 91.570312 26.117188 C 91.488281 26.414062 91.433594 26.71875 91.410156 27.023438 Z M 106.773438 37.210938 C 106.183594 37.929688 105.523438 38.574219 104.792969 39.144531 C 104.0625 39.714844 103.277344 40.199219 102.4375 40.59375 C 101.601562 40.988281 100.730469 41.289062 99.824219 41.488281 C 98.921875 41.6875 98.007812 41.785156 97.082031 41.78125 C 89.992188 41.78125 84.316406 37.019531 84.316406 29.640625 C 84.316406 22.265625 89.992188 17.503906 97.082031 17.503906 C 103.707031 17.503906 107.859375 22.261719 107.859375 29.640625 L 107.859375 31.878906 L 91.410156 31.878906 C 91.511719 32.515625 91.722656 33.109375 92.039062 33.667969 C 92.355469 34.226562 92.757812 34.710938 93.25 35.121094 C 93.738281 35.535156 94.285156 35.84375 94.890625 36.058594 C 95.492188 36.269531 96.113281 36.367188 96.75 36.355469 C 97.777344 36.347656 98.738281 36.09375 99.632812 35.597656 C 100.53125 35.097656 101.257812 34.414062 101.808594 33.546875 Z M 36.3125 18.210938 L 43.117188 18.210938 L 43.117188 21.351562 L 43.214844 21.351562 C 43.554688 20.765625 43.964844 20.234375 44.449219 19.761719 C 44.929688 19.285156 45.46875 18.886719 46.058594 18.558594 C 46.652344 18.230469 47.273438 17.992188 47.929688 17.835938 C 48.585938 17.679688 49.25 17.613281 49.925781 17.636719 C 57.113281 17.636719 58.4375 22.398438 58.4375 28.585938 L 58.4375 41.1875 L 51.347656 41.1875 L 51.347656 30.015625 C 51.347656 27.347656 51.300781 23.917969 47.65625 23.917969 C 43.972656 23.917969 43.402344 26.824219 43.402344 29.820312 L 43.402344 41.183594 L 36.316406 41.183594 Z M 62.03125 7.285156 L 69.117188 7.285156 L 69.117188 27.550781 L 77.152344 18.195312 L 85.84375 18.195312 L 76.539062 28.835938 L 85.648438 41.199219 L 76.738281 41.199219 L 69.214844 29.839844 L 69.121094 29.839844 L 69.121094 41.195312 L 62.03125 41.195312 Z M 25.292969 18.207031 L 32.378906 18.207031 L 32.378906 41.1875 L 25.292969 41.1875 Z M 28.835938 6.78125 C 29.105469 6.78125 29.375 6.808594 29.636719 6.863281 C 29.902344 6.914062 30.160156 6.992188 30.410156 7.097656 C 30.660156 7.203125 30.894531 7.328125 31.121094 7.480469 C 31.34375 7.632812 31.554688 7.804688 31.742188 7.996094 C 31.933594 8.1875 32.105469 8.398438 32.253906 8.621094 C 32.40625 8.847656 32.53125 9.085938 32.632812 9.339844 C 32.738281 9.589844 32.816406 9.847656 32.867188 10.113281 C 32.921875 10.382812 32.949219 10.652344 32.949219 10.921875 C 32.949219 11.195312 32.921875 11.464844 32.867188 11.730469 C 32.816406 11.996094 32.738281 12.253906 32.632812 12.507812 C 32.53125 12.757812 32.40625 12.996094 32.253906 13.222656 C 32.105469 13.449219 31.933594 13.65625 31.742188 13.847656 C 31.550781 14.042969 31.34375 14.214844 31.121094 14.363281 C 30.894531 14.515625 30.660156 14.644531 30.410156 14.746094 C 30.160156 14.851562 29.902344 14.929688 29.636719 14.980469 C 29.371094 15.035156 29.105469 15.0625 28.835938 15.0625 C 28.566406 15.0625 28.296875 15.035156 28.035156 14.980469 C 27.769531 14.929688 27.511719 14.851562 27.261719 14.746094 C 27.011719 14.644531 26.777344 14.515625 26.550781 14.363281 C 26.328125 14.214844 26.117188 14.042969 25.929688 13.847656 C 25.738281 13.65625 25.566406 13.449219 25.417969 13.222656 C 25.265625 12.996094 25.140625 12.757812 25.035156 12.507812 C 24.933594 12.253906 24.855469 11.996094 24.804688 11.730469 C 24.75 11.464844 24.722656 11.195312 24.722656 10.921875 C 24.722656 10.648438 24.75 10.382812 24.804688 10.113281 C 24.855469 9.847656 24.933594 9.589844 25.035156 9.335938 C 25.140625 9.085938 25.265625 8.847656 25.417969 8.621094 C 25.566406 8.394531 25.738281 8.1875 25.929688 7.996094 C 26.121094 7.800781 26.328125 7.628906 26.550781 7.480469 C 26.777344 7.328125 27.011719 7.203125 27.261719 7.097656 C 27.511719 6.992188 27.769531 6.914062 28.035156 6.863281 C 28.300781 6.808594 28.566406 6.78125 28.835938 6.78125 M 0.992188 7.289062 L 8.371094 7.289062 L 8.371094 34.347656 L 22.03125 34.347656 L 22.03125 41.203125 L 0.992188 41.203125 Z M 195.726562 45.585938 C 195.847656 45.589844 195.96875 45.566406 196.082031 45.515625 C 196.195312 45.46875 196.292969 45.402344 196.375 45.3125 C 196.460938 45.222656 196.523438 45.117188 196.566406 45.003906 C 196.609375 44.886719 196.628906 44.765625 196.621094 44.644531 C 196.621094 43.976562 196.21875 43.65625 195.398438 43.65625 L 194.066406 43.65625 L 194.066406 47.15625 L 194.566406 47.15625 L 194.566406 45.632812 L 195.183594 45.632812 L 195.195312 45.648438 L 196.148438 47.15625 L 196.683594 47.15625 L 195.65625 45.597656 Z M 195.148438 45.238281 L 194.570312 45.238281 L 194.570312 44.050781 L 195.304688 44.050781 C 195.683594 44.050781 196.117188 44.113281 196.117188 44.613281 C 196.117188 45.191406 195.679688 45.238281 195.144531 45.238281 " fill-opacity="1" fill-rule="nonzero"/></g></svg>